<mxfile host="Electron" modified="2024-02-20T22:30:41.659Z" agent="Mozilla/5.0 (Windows NT 10.0; Win64; x64) AppleWebKit/537.36 (KHTML, like Gecko) draw.io/23.1.5 Chrome/120.0.6099.109 Electron/28.1.0 Safari/537.36" etag="Ity09BxdC5Zm7pFHKmTP" version="23.1.5" type="device">
  <diagram name="Page-1" id="2YBvvXClWsGukQMizWep">
    <mxGraphModel dx="1843" dy="887" grid="1" gridSize="10" guides="1" tooltips="1" connect="1" arrows="1" fold="1" page="1" pageScale="1" pageWidth="850" pageHeight="1100" math="0" shadow="0">
      <root>
        <mxCell id="0" />
        <mxCell id="1" parent="0" />
        <mxCell id="WjYQRiNEtOrdXzLl85hs-20" value="Admin" style="shape=umlLifeline;perimeter=lifelinePerimeter;whiteSpace=wrap;html=1;container=1;dropTarget=0;collapsible=0;recursiveResize=0;outlineConnect=0;portConstraint=eastwest;newEdgeStyle={&quot;curved&quot;:0,&quot;rounded&quot;:0};" vertex="1" parent="1">
          <mxGeometry x="40" y="40" width="100" height="920" as="geometry" />
        </mxCell>
        <mxCell id="WjYQRiNEtOrdXzLl85hs-21" value="DayBook" style="shape=umlLifeline;perimeter=lifelinePerimeter;whiteSpace=wrap;html=1;container=1;dropTarget=0;collapsible=0;recursiveResize=0;outlineConnect=0;portConstraint=eastwest;newEdgeStyle={&quot;curved&quot;:0,&quot;rounded&quot;:0};" vertex="1" parent="1">
          <mxGeometry x="1160" y="40" width="100" height="920" as="geometry" />
        </mxCell>
        <mxCell id="WjYQRiNEtOrdXzLl85hs-70" value="" style="html=1;points=[[0,0,0,0,5],[0,1,0,0,-5],[1,0,0,0,5],[1,1,0,0,-5]];perimeter=orthogonalPerimeter;outlineConnect=0;targetShapes=umlLifeline;portConstraint=eastwest;newEdgeStyle={&quot;curved&quot;:0,&quot;rounded&quot;:0};" vertex="1" parent="WjYQRiNEtOrdXzLl85hs-21">
          <mxGeometry x="45" y="710" width="10" height="40" as="geometry" />
        </mxCell>
        <mxCell id="WjYQRiNEtOrdXzLl85hs-81" value="" style="html=1;points=[[0,0,0,0,5],[0,1,0,0,-5],[1,0,0,0,5],[1,1,0,0,-5]];perimeter=orthogonalPerimeter;outlineConnect=0;targetShapes=umlLifeline;portConstraint=eastwest;newEdgeStyle={&quot;curved&quot;:0,&quot;rounded&quot;:0};" vertex="1" parent="WjYQRiNEtOrdXzLl85hs-21">
          <mxGeometry x="45" y="870" width="10" height="40" as="geometry" />
        </mxCell>
        <mxCell id="WjYQRiNEtOrdXzLl85hs-22" value="Advertisement" style="shape=umlLifeline;perimeter=lifelinePerimeter;whiteSpace=wrap;html=1;container=1;dropTarget=0;collapsible=0;recursiveResize=0;outlineConnect=0;portConstraint=eastwest;newEdgeStyle={&quot;curved&quot;:0,&quot;rounded&quot;:0};" vertex="1" parent="1">
          <mxGeometry x="1000" y="40" width="100" height="920" as="geometry" />
        </mxCell>
        <mxCell id="WjYQRiNEtOrdXzLl85hs-67" value="" style="html=1;points=[[0,0,0,0,5],[0,1,0,0,-5],[1,0,0,0,5],[1,1,0,0,-5]];perimeter=orthogonalPerimeter;outlineConnect=0;targetShapes=umlLifeline;portConstraint=eastwest;newEdgeStyle={&quot;curved&quot;:0,&quot;rounded&quot;:0};" vertex="1" parent="WjYQRiNEtOrdXzLl85hs-22">
          <mxGeometry x="45" y="650" width="10" height="50" as="geometry" />
        </mxCell>
        <mxCell id="WjYQRiNEtOrdXzLl85hs-75" value="" style="html=1;points=[[0,0,0,0,5],[0,1,0,0,-5],[1,0,0,0,5],[1,1,0,0,-5]];perimeter=orthogonalPerimeter;outlineConnect=0;targetShapes=umlLifeline;portConstraint=eastwest;newEdgeStyle={&quot;curved&quot;:0,&quot;rounded&quot;:0};" vertex="1" parent="WjYQRiNEtOrdXzLl85hs-22">
          <mxGeometry x="45" y="810" width="10" height="40" as="geometry" />
        </mxCell>
        <mxCell id="WjYQRiNEtOrdXzLl85hs-25" value="Schedule" style="shape=umlLifeline;perimeter=lifelinePerimeter;whiteSpace=wrap;html=1;container=1;dropTarget=0;collapsible=0;recursiveResize=0;outlineConnect=0;portConstraint=eastwest;newEdgeStyle={&quot;curved&quot;:0,&quot;rounded&quot;:0};" vertex="1" parent="1">
          <mxGeometry x="840" y="40" width="100" height="920" as="geometry" />
        </mxCell>
        <mxCell id="WjYQRiNEtOrdXzLl85hs-39" value="" style="html=1;points=[[0,0,0,0,5],[0,1,0,0,-5],[1,0,0,0,5],[1,1,0,0,-5]];perimeter=orthogonalPerimeter;outlineConnect=0;targetShapes=umlLifeline;portConstraint=eastwest;newEdgeStyle={&quot;curved&quot;:0,&quot;rounded&quot;:0};" vertex="1" parent="WjYQRiNEtOrdXzLl85hs-25">
          <mxGeometry x="45" y="260" width="10" height="50" as="geometry" />
        </mxCell>
        <mxCell id="WjYQRiNEtOrdXzLl85hs-59" value="" style="html=1;points=[[0,0,0,0,5],[0,1,0,0,-5],[1,0,0,0,5],[1,1,0,0,-5]];perimeter=orthogonalPerimeter;outlineConnect=0;targetShapes=umlLifeline;portConstraint=eastwest;newEdgeStyle={&quot;curved&quot;:0,&quot;rounded&quot;:0};" vertex="1" parent="WjYQRiNEtOrdXzLl85hs-25">
          <mxGeometry x="45" y="540" width="10" height="40" as="geometry" />
        </mxCell>
        <mxCell id="WjYQRiNEtOrdXzLl85hs-62" value="" style="html=1;points=[[0,0,0,0,5],[0,1,0,0,-5],[1,0,0,0,5],[1,1,0,0,-5]];perimeter=orthogonalPerimeter;outlineConnect=0;targetShapes=umlLifeline;portConstraint=eastwest;newEdgeStyle={&quot;curved&quot;:0,&quot;rounded&quot;:0};" vertex="1" parent="WjYQRiNEtOrdXzLl85hs-25">
          <mxGeometry x="45" y="600" width="10" height="30" as="geometry" />
        </mxCell>
        <mxCell id="WjYQRiNEtOrdXzLl85hs-78" value="" style="html=1;points=[[0,0,0,0,5],[0,1,0,0,-5],[1,0,0,0,5],[1,1,0,0,-5]];perimeter=orthogonalPerimeter;outlineConnect=0;targetShapes=umlLifeline;portConstraint=eastwest;newEdgeStyle={&quot;curved&quot;:0,&quot;rounded&quot;:0};" vertex="1" parent="WjYQRiNEtOrdXzLl85hs-25">
          <mxGeometry x="45" y="760" width="10" height="40" as="geometry" />
        </mxCell>
        <mxCell id="WjYQRiNEtOrdXzLl85hs-26" value="Class" style="shape=umlLifeline;perimeter=lifelinePerimeter;whiteSpace=wrap;html=1;container=1;dropTarget=0;collapsible=0;recursiveResize=0;outlineConnect=0;portConstraint=eastwest;newEdgeStyle={&quot;curved&quot;:0,&quot;rounded&quot;:0};" vertex="1" parent="1">
          <mxGeometry x="680" y="40" width="100" height="910" as="geometry" />
        </mxCell>
        <mxCell id="WjYQRiNEtOrdXzLl85hs-36" value="" style="html=1;points=[[0,0,0,0,5],[0,1,0,0,-5],[1,0,0,0,5],[1,1,0,0,-5]];perimeter=orthogonalPerimeter;outlineConnect=0;targetShapes=umlLifeline;portConstraint=eastwest;newEdgeStyle={&quot;curved&quot;:0,&quot;rounded&quot;:0};" vertex="1" parent="WjYQRiNEtOrdXzLl85hs-26">
          <mxGeometry x="45" y="200" width="10" height="50" as="geometry" />
        </mxCell>
        <mxCell id="WjYQRiNEtOrdXzLl85hs-47" value="" style="html=1;points=[[0,0,0,0,5],[0,1,0,0,-5],[1,0,0,0,5],[1,1,0,0,-5]];perimeter=orthogonalPerimeter;outlineConnect=0;targetShapes=umlLifeline;portConstraint=eastwest;newEdgeStyle={&quot;curved&quot;:0,&quot;rounded&quot;:0};" vertex="1" parent="WjYQRiNEtOrdXzLl85hs-26">
          <mxGeometry x="50" y="340" width="10" height="40" as="geometry" />
        </mxCell>
        <mxCell id="WjYQRiNEtOrdXzLl85hs-48" value="Display Class" style="html=1;align=left;spacingLeft=2;endArrow=block;rounded=0;edgeStyle=orthogonalEdgeStyle;curved=0;rounded=0;" edge="1" target="WjYQRiNEtOrdXzLl85hs-47" parent="WjYQRiNEtOrdXzLl85hs-26">
          <mxGeometry relative="1" as="geometry">
            <mxPoint x="55" y="320" as="sourcePoint" />
            <Array as="points">
              <mxPoint x="85" y="350" />
            </Array>
          </mxGeometry>
        </mxCell>
        <mxCell id="WjYQRiNEtOrdXzLl85hs-27" value="Teacher" style="shape=umlLifeline;perimeter=lifelinePerimeter;whiteSpace=wrap;html=1;container=1;dropTarget=0;collapsible=0;recursiveResize=0;outlineConnect=0;portConstraint=eastwest;newEdgeStyle={&quot;curved&quot;:0,&quot;rounded&quot;:0};" vertex="1" parent="1">
          <mxGeometry x="200" y="40" width="100" height="920" as="geometry" />
        </mxCell>
        <mxCell id="WjYQRiNEtOrdXzLl85hs-30" value="" style="html=1;points=[[0,0,0,0,5],[0,1,0,0,-5],[1,0,0,0,5],[1,1,0,0,-5]];perimeter=orthogonalPerimeter;outlineConnect=0;targetShapes=umlLifeline;portConstraint=eastwest;newEdgeStyle={&quot;curved&quot;:0,&quot;rounded&quot;:0};" vertex="1" parent="WjYQRiNEtOrdXzLl85hs-27">
          <mxGeometry x="45" y="80" width="10" height="40" as="geometry" />
        </mxCell>
        <mxCell id="WjYQRiNEtOrdXzLl85hs-45" value="" style="html=1;points=[[0,0,0,0,5],[0,1,0,0,-5],[1,0,0,0,5],[1,1,0,0,-5]];perimeter=orthogonalPerimeter;outlineConnect=0;targetShapes=umlLifeline;portConstraint=eastwest;newEdgeStyle={&quot;curved&quot;:0,&quot;rounded&quot;:0};" vertex="1" parent="WjYQRiNEtOrdXzLl85hs-27">
          <mxGeometry x="45" y="360" width="10" height="40" as="geometry" />
        </mxCell>
        <mxCell id="WjYQRiNEtOrdXzLl85hs-46" value="Dispaly Teacher" style="html=1;align=left;spacingLeft=2;endArrow=block;rounded=0;edgeStyle=orthogonalEdgeStyle;curved=0;rounded=0;" edge="1" target="WjYQRiNEtOrdXzLl85hs-45" parent="WjYQRiNEtOrdXzLl85hs-27">
          <mxGeometry relative="1" as="geometry">
            <mxPoint x="55" y="340" as="sourcePoint" />
            <Array as="points">
              <mxPoint x="85" y="370" />
            </Array>
          </mxGeometry>
        </mxCell>
        <mxCell id="WjYQRiNEtOrdXzLl85hs-28" value="Parent" style="shape=umlLifeline;perimeter=lifelinePerimeter;whiteSpace=wrap;html=1;container=1;dropTarget=0;collapsible=0;recursiveResize=0;outlineConnect=0;portConstraint=eastwest;newEdgeStyle={&quot;curved&quot;:0,&quot;rounded&quot;:0};" vertex="1" parent="1">
          <mxGeometry x="360" y="40" width="100" height="920" as="geometry" />
        </mxCell>
        <mxCell id="WjYQRiNEtOrdXzLl85hs-33" value="" style="html=1;points=[[0,0,0,0,5],[0,1,0,0,-5],[1,0,0,0,5],[1,1,0,0,-5]];perimeter=orthogonalPerimeter;outlineConnect=0;targetShapes=umlLifeline;portConstraint=eastwest;newEdgeStyle={&quot;curved&quot;:0,&quot;rounded&quot;:0};" vertex="1" parent="WjYQRiNEtOrdXzLl85hs-28">
          <mxGeometry x="45" y="140" width="10" height="40" as="geometry" />
        </mxCell>
        <mxCell id="WjYQRiNEtOrdXzLl85hs-50" value="" style="html=1;points=[[0,0,0,0,5],[0,1,0,0,-5],[1,0,0,0,5],[1,1,0,0,-5]];perimeter=orthogonalPerimeter;outlineConnect=0;targetShapes=umlLifeline;portConstraint=eastwest;newEdgeStyle={&quot;curved&quot;:0,&quot;rounded&quot;:0};" vertex="1" parent="WjYQRiNEtOrdXzLl85hs-28">
          <mxGeometry x="46" y="430" width="10" height="80" as="geometry" />
        </mxCell>
        <mxCell id="WjYQRiNEtOrdXzLl85hs-53" value="" style="html=1;points=[[0,0,0,0,5],[0,1,0,0,-5],[1,0,0,0,5],[1,1,0,0,-5]];perimeter=orthogonalPerimeter;outlineConnect=0;targetShapes=umlLifeline;portConstraint=eastwest;newEdgeStyle={&quot;curved&quot;:0,&quot;rounded&quot;:0};" vertex="1" parent="WjYQRiNEtOrdXzLl85hs-28">
          <mxGeometry x="42" y="360" width="10" height="40" as="geometry" />
        </mxCell>
        <mxCell id="WjYQRiNEtOrdXzLl85hs-54" value="Display Parent" style="html=1;align=left;spacingLeft=2;endArrow=block;rounded=0;edgeStyle=orthogonalEdgeStyle;curved=0;rounded=0;" edge="1" target="WjYQRiNEtOrdXzLl85hs-53" parent="WjYQRiNEtOrdXzLl85hs-28">
          <mxGeometry relative="1" as="geometry">
            <mxPoint x="47" y="340" as="sourcePoint" />
            <Array as="points">
              <mxPoint x="77" y="370" />
            </Array>
          </mxGeometry>
        </mxCell>
        <mxCell id="WjYQRiNEtOrdXzLl85hs-29" value="Pupil" style="shape=umlLifeline;perimeter=lifelinePerimeter;whiteSpace=wrap;html=1;container=1;dropTarget=0;collapsible=0;recursiveResize=0;outlineConnect=0;portConstraint=eastwest;newEdgeStyle={&quot;curved&quot;:0,&quot;rounded&quot;:0};" vertex="1" parent="1">
          <mxGeometry x="520" y="40" width="100" height="910" as="geometry" />
        </mxCell>
        <mxCell id="WjYQRiNEtOrdXzLl85hs-56" value="" style="html=1;points=[[0,0,0,0,5],[0,1,0,0,-5],[1,0,0,0,5],[1,1,0,0,-5]];perimeter=orthogonalPerimeter;outlineConnect=0;targetShapes=umlLifeline;portConstraint=eastwest;newEdgeStyle={&quot;curved&quot;:0,&quot;rounded&quot;:0};" vertex="1" parent="WjYQRiNEtOrdXzLl85hs-29">
          <mxGeometry x="45" y="430" width="10" height="80" as="geometry" />
        </mxCell>
        <mxCell id="WjYQRiNEtOrdXzLl85hs-73" value="" style="html=1;points=[[0,0,0,0,5],[0,1,0,0,-5],[1,0,0,0,5],[1,1,0,0,-5]];perimeter=orthogonalPerimeter;outlineConnect=0;targetShapes=umlLifeline;portConstraint=eastwest;newEdgeStyle={&quot;curved&quot;:0,&quot;rounded&quot;:0};" vertex="1" parent="WjYQRiNEtOrdXzLl85hs-29">
          <mxGeometry x="50" y="360" width="10" height="40" as="geometry" />
        </mxCell>
        <mxCell id="WjYQRiNEtOrdXzLl85hs-74" value="Display Pupil" style="html=1;align=left;spacingLeft=2;endArrow=block;rounded=0;edgeStyle=orthogonalEdgeStyle;curved=0;rounded=0;" edge="1" target="WjYQRiNEtOrdXzLl85hs-73" parent="WjYQRiNEtOrdXzLl85hs-29">
          <mxGeometry relative="1" as="geometry">
            <mxPoint x="55" y="340" as="sourcePoint" />
            <Array as="points">
              <mxPoint x="85" y="370" />
            </Array>
          </mxGeometry>
        </mxCell>
        <mxCell id="WjYQRiNEtOrdXzLl85hs-31" value="Add/Modify/Delete Teacherl" style="html=1;verticalAlign=bottom;endArrow=block;curved=0;rounded=0;" edge="1" parent="1">
          <mxGeometry width="80" relative="1" as="geometry">
            <mxPoint x="89.32352941176464" y="120" as="sourcePoint" />
            <mxPoint x="249.5" y="120" as="targetPoint" />
            <Array as="points">
              <mxPoint x="160" y="120" />
            </Array>
          </mxGeometry>
        </mxCell>
        <mxCell id="WjYQRiNEtOrdXzLl85hs-32" value="return" style="html=1;verticalAlign=bottom;endArrow=open;dashed=1;endSize=8;curved=0;rounded=0;" edge="1" parent="1">
          <mxGeometry relative="1" as="geometry">
            <mxPoint x="249.5" y="160" as="sourcePoint" />
            <mxPoint x="89.32352941176464" y="160" as="targetPoint" />
          </mxGeometry>
        </mxCell>
        <mxCell id="WjYQRiNEtOrdXzLl85hs-34" value="Add/Modify/Delete Parent" style="html=1;verticalAlign=bottom;endArrow=block;curved=0;rounded=0;" edge="1" parent="1">
          <mxGeometry width="80" relative="1" as="geometry">
            <mxPoint x="90.25352941176465" y="180" as="sourcePoint" />
            <mxPoint x="409.75" y="180" as="targetPoint" />
            <Array as="points">
              <mxPoint x="160.93" y="180" />
            </Array>
          </mxGeometry>
        </mxCell>
        <mxCell id="WjYQRiNEtOrdXzLl85hs-35" value="return" style="html=1;verticalAlign=bottom;endArrow=open;dashed=1;endSize=8;curved=0;rounded=0;exitX=0;exitY=1;exitDx=0;exitDy=-5;exitPerimeter=0;" edge="1" parent="1" source="WjYQRiNEtOrdXzLl85hs-33" target="WjYQRiNEtOrdXzLl85hs-20">
          <mxGeometry relative="1" as="geometry">
            <mxPoint x="400.18" y="220" as="sourcePoint" />
            <mxPoint x="240.00352941176465" y="220" as="targetPoint" />
          </mxGeometry>
        </mxCell>
        <mxCell id="WjYQRiNEtOrdXzLl85hs-38" value="return" style="html=1;verticalAlign=bottom;endArrow=open;dashed=1;endSize=8;curved=0;rounded=0;exitX=0;exitY=1;exitDx=0;exitDy=-5;" edge="1" source="WjYQRiNEtOrdXzLl85hs-36" parent="1" target="WjYQRiNEtOrdXzLl85hs-20">
          <mxGeometry relative="1" as="geometry">
            <mxPoint x="650" y="305" as="targetPoint" />
          </mxGeometry>
        </mxCell>
        <mxCell id="WjYQRiNEtOrdXzLl85hs-37" value="Add/Delete Class" style="html=1;verticalAlign=bottom;endArrow=block;curved=0;rounded=0;entryX=0;entryY=0;entryDx=0;entryDy=5;" edge="1" target="WjYQRiNEtOrdXzLl85hs-36" parent="1" source="WjYQRiNEtOrdXzLl85hs-20">
          <mxGeometry relative="1" as="geometry">
            <mxPoint x="650" y="235" as="sourcePoint" />
          </mxGeometry>
        </mxCell>
        <mxCell id="WjYQRiNEtOrdXzLl85hs-40" value="Add/Delete Schedule" style="html=1;verticalAlign=bottom;endArrow=block;curved=0;rounded=0;entryX=0;entryY=0;entryDx=0;entryDy=5;" edge="1" target="WjYQRiNEtOrdXzLl85hs-39" parent="1" source="WjYQRiNEtOrdXzLl85hs-20">
          <mxGeometry relative="1" as="geometry">
            <mxPoint x="820" y="285" as="sourcePoint" />
          </mxGeometry>
        </mxCell>
        <mxCell id="WjYQRiNEtOrdXzLl85hs-41" value="return" style="html=1;verticalAlign=bottom;endArrow=open;dashed=1;endSize=8;curved=0;rounded=0;exitX=0;exitY=1;exitDx=0;exitDy=-5;" edge="1" source="WjYQRiNEtOrdXzLl85hs-39" parent="1" target="WjYQRiNEtOrdXzLl85hs-20">
          <mxGeometry relative="1" as="geometry">
            <mxPoint x="820" y="355" as="targetPoint" />
          </mxGeometry>
        </mxCell>
        <mxCell id="WjYQRiNEtOrdXzLl85hs-51" value="Display Parent" style="html=1;verticalAlign=bottom;endArrow=block;curved=0;rounded=0;entryX=0;entryY=0;entryDx=0;entryDy=5;" edge="1" target="WjYQRiNEtOrdXzLl85hs-50" parent="1">
          <mxGeometry relative="1" as="geometry">
            <mxPoint x="255.99999999999977" y="475" as="sourcePoint" />
          </mxGeometry>
        </mxCell>
        <mxCell id="WjYQRiNEtOrdXzLl85hs-52" value="return" style="html=1;verticalAlign=bottom;endArrow=open;dashed=1;endSize=8;curved=0;rounded=0;exitX=0;exitY=1;exitDx=0;exitDy=-5;" edge="1" source="WjYQRiNEtOrdXzLl85hs-50" parent="1">
          <mxGeometry relative="1" as="geometry">
            <mxPoint x="255.99999999999977" y="545" as="targetPoint" />
          </mxGeometry>
        </mxCell>
        <mxCell id="WjYQRiNEtOrdXzLl85hs-55" value="Display Pupil" style="html=1;verticalAlign=bottom;endArrow=block;curved=0;rounded=0;" edge="1" parent="1" source="WjYQRiNEtOrdXzLl85hs-28" target="WjYQRiNEtOrdXzLl85hs-56">
          <mxGeometry width="80" relative="1" as="geometry">
            <mxPoint x="426" y="480" as="sourcePoint" />
            <mxPoint x="520" y="485" as="targetPoint" />
          </mxGeometry>
        </mxCell>
        <mxCell id="WjYQRiNEtOrdXzLl85hs-57" value="return" style="html=1;verticalAlign=bottom;endArrow=open;dashed=1;endSize=8;curved=0;rounded=0;" edge="1" parent="1" target="WjYQRiNEtOrdXzLl85hs-28">
          <mxGeometry relative="1" as="geometry">
            <mxPoint x="569.5" y="549" as="sourcePoint" />
            <mxPoint x="409.32352941176464" y="549" as="targetPoint" />
          </mxGeometry>
        </mxCell>
        <mxCell id="WjYQRiNEtOrdXzLl85hs-58" value="Display Schedule" style="html=1;verticalAlign=bottom;endArrow=block;curved=0;rounded=0;" edge="1" parent="1">
          <mxGeometry width="80" relative="1" as="geometry">
            <mxPoint x="250.25" y="580" as="sourcePoint" />
            <mxPoint x="889.75" y="580" as="targetPoint" />
          </mxGeometry>
        </mxCell>
        <mxCell id="WjYQRiNEtOrdXzLl85hs-60" value="return" style="html=1;verticalAlign=bottom;endArrow=open;dashed=1;endSize=8;curved=0;rounded=0;" edge="1" parent="1" target="WjYQRiNEtOrdXzLl85hs-27">
          <mxGeometry relative="1" as="geometry">
            <mxPoint x="880" y="620" as="sourcePoint" />
            <mxPoint x="800" y="620" as="targetPoint" />
          </mxGeometry>
        </mxCell>
        <mxCell id="WjYQRiNEtOrdXzLl85hs-61" value="dispatch" style="html=1;verticalAlign=bottom;endArrow=block;curved=0;rounded=0;" edge="1" parent="1" target="WjYQRiNEtOrdXzLl85hs-25">
          <mxGeometry width="80" relative="1" as="geometry">
            <mxPoint x="410" y="640" as="sourcePoint" />
            <mxPoint x="490" y="640" as="targetPoint" />
          </mxGeometry>
        </mxCell>
        <mxCell id="WjYQRiNEtOrdXzLl85hs-64" value="return" style="html=1;verticalAlign=bottom;endArrow=open;dashed=1;endSize=8;curved=0;rounded=0;" edge="1" parent="1">
          <mxGeometry relative="1" as="geometry">
            <mxPoint x="889.5000000000002" y="670" as="sourcePoint" />
            <mxPoint x="409.8103448275863" y="670" as="targetPoint" />
          </mxGeometry>
        </mxCell>
        <mxCell id="WjYQRiNEtOrdXzLl85hs-69" value="return" style="html=1;verticalAlign=bottom;endArrow=open;dashed=1;endSize=8;curved=0;rounded=0;exitX=0;exitY=1;exitDx=0;exitDy=-5;" edge="1" source="WjYQRiNEtOrdXzLl85hs-67" parent="1" target="WjYQRiNEtOrdXzLl85hs-27">
          <mxGeometry relative="1" as="geometry">
            <mxPoint x="1130" y="705" as="targetPoint" />
          </mxGeometry>
        </mxCell>
        <mxCell id="WjYQRiNEtOrdXzLl85hs-68" value="Add/Dispaly Advertisement" style="html=1;verticalAlign=bottom;endArrow=block;curved=0;rounded=0;entryX=0;entryY=0;entryDx=0;entryDy=5;entryPerimeter=0;" edge="1" target="WjYQRiNEtOrdXzLl85hs-67" parent="1">
          <mxGeometry relative="1" as="geometry">
            <mxPoint x="252.16352941176464" y="690" as="sourcePoint" />
            <mxPoint x="1207.8399999999995" y="690" as="targetPoint" />
          </mxGeometry>
        </mxCell>
        <mxCell id="WjYQRiNEtOrdXzLl85hs-71" value="Display DayBook" style="html=1;verticalAlign=bottom;endArrow=block;curved=0;rounded=0;entryX=0;entryY=0;entryDx=0;entryDy=5;" edge="1" target="WjYQRiNEtOrdXzLl85hs-70" parent="1" source="WjYQRiNEtOrdXzLl85hs-27">
          <mxGeometry relative="1" as="geometry">
            <mxPoint x="290" y="805" as="sourcePoint" />
          </mxGeometry>
        </mxCell>
        <mxCell id="WjYQRiNEtOrdXzLl85hs-72" value="return" style="html=1;verticalAlign=bottom;endArrow=open;dashed=1;endSize=8;curved=0;rounded=0;exitX=0;exitY=1;exitDx=0;exitDy=-5;" edge="1" source="WjYQRiNEtOrdXzLl85hs-70" parent="1" target="WjYQRiNEtOrdXzLl85hs-27">
          <mxGeometry relative="1" as="geometry">
            <mxPoint x="280" y="835" as="targetPoint" />
          </mxGeometry>
        </mxCell>
        <mxCell id="WjYQRiNEtOrdXzLl85hs-76" value="Display Advertisement" style="html=1;verticalAlign=bottom;endArrow=block;curved=0;rounded=0;entryX=0;entryY=0;entryDx=0;entryDy=5;" edge="1" target="WjYQRiNEtOrdXzLl85hs-75" parent="1" source="WjYQRiNEtOrdXzLl85hs-29">
          <mxGeometry relative="1" as="geometry">
            <mxPoint x="570" y="795" as="sourcePoint" />
          </mxGeometry>
        </mxCell>
        <mxCell id="WjYQRiNEtOrdXzLl85hs-77" value="return" style="html=1;verticalAlign=bottom;endArrow=open;dashed=1;endSize=8;curved=0;rounded=0;exitX=0;exitY=1;exitDx=0;exitDy=-5;" edge="1" source="WjYQRiNEtOrdXzLl85hs-75" parent="1" target="WjYQRiNEtOrdXzLl85hs-29">
          <mxGeometry relative="1" as="geometry">
            <mxPoint x="570" y="865" as="targetPoint" />
          </mxGeometry>
        </mxCell>
        <mxCell id="WjYQRiNEtOrdXzLl85hs-79" value="Display Schedule" style="html=1;verticalAlign=bottom;endArrow=block;curved=0;rounded=0;entryX=0;entryY=0;entryDx=0;entryDy=5;" edge="1" parent="1" target="WjYQRiNEtOrdXzLl85hs-78">
          <mxGeometry relative="1" as="geometry">
            <mxPoint x="580" y="805" as="sourcePoint" />
          </mxGeometry>
        </mxCell>
        <mxCell id="WjYQRiNEtOrdXzLl85hs-80" value="return" style="html=1;verticalAlign=bottom;endArrow=open;dashed=1;endSize=8;curved=0;rounded=0;exitX=0;exitY=1;exitDx=0;exitDy=-5;" edge="1" parent="1" source="WjYQRiNEtOrdXzLl85hs-78">
          <mxGeometry relative="1" as="geometry">
            <mxPoint x="579" y="835" as="targetPoint" />
          </mxGeometry>
        </mxCell>
        <mxCell id="WjYQRiNEtOrdXzLl85hs-82" value="Display DayBook" style="html=1;verticalAlign=bottom;endArrow=block;curved=0;rounded=0;entryX=0;entryY=0;entryDx=0;entryDy=5;" edge="1" parent="1" target="WjYQRiNEtOrdXzLl85hs-81" source="WjYQRiNEtOrdXzLl85hs-29">
          <mxGeometry relative="1" as="geometry">
            <mxPoint x="611" y="875" as="sourcePoint" />
          </mxGeometry>
        </mxCell>
        <mxCell id="WjYQRiNEtOrdXzLl85hs-83" value="return" style="html=1;verticalAlign=bottom;endArrow=open;dashed=1;endSize=8;curved=0;rounded=0;exitX=0;exitY=1;exitDx=0;exitDy=-5;" edge="1" parent="1" source="WjYQRiNEtOrdXzLl85hs-81" target="WjYQRiNEtOrdXzLl85hs-29">
          <mxGeometry relative="1" as="geometry">
            <mxPoint x="610" y="905" as="targetPoint" />
          </mxGeometry>
        </mxCell>
      </root>
    </mxGraphModel>
  </diagram>
</mxfile>
